# xmcd CD database file generated by OrangeCD 4.3
#
# Track frame offsets:
#	150
#	17381
#	35407
#	40716
#	67008
#	90571
#	98609
#	123935
#	140423
#	154123
#	158535
#
# Disc length: 2353 seconds
#
# Revision: 4
# Processed by: cddbd v1.4PL0 Copyright (c) Steve Scherf et al.
# Submitted via: OrangeCD 4.3
#
DISCID=79092f0b
DTITLE=Andreas Vollenweider - Dancing With The Lion
DYEAR=1989
DGENRE=Electronic
TTITLE0=Unto The Burning Circle
TTITLE1=Dancing With The Lion
TTITLE2=Hippolyte
TTITLE3=Dance Of The Masks
TTITLE4=Pearls and Tears
TTITLE5=Garden Of My Childhood
TTITLE6=Still Life
TTITLE7=And The Long Shadows
TTITLE8=See, My Love...
TTITLE9=Silver Dew, Golden Grass
TTITLE10=Ascent From The Circle
EXTD=
EXTT0=
EXTT1=
EXTT2=
EXTT3=
EXTT4=
EXTT5=
EXTT6=
EXTT7=
EXTT8=
EXTT9=
EXTT10=
PLAYORDER=
